<svg id="Layer_1" enable-background="new 0 0 512 512" height="512" viewBox="0 0 512 512" width="512" xmlns="http://www.w3.org/2000/svg"><g><g><g><g><path d="m497 511.998h-482c-8.284 0-15-6.716-15-15v-352.998c0-8.284 6.716-15 15-15h482c8.284 0 15 6.716 15 15v352.998c0 8.284-6.716 15-15 15z" fill="#fff7cc"/></g></g></g><g><g><path d="m497 129h-240.999v382.998h240.999c8.284 0 15-6.716 15-15v-352.998c0-8.284-6.716-15-15-15z" fill="#ffe6b3"/></g></g><path d="m512 171.681h-512v-97.766c0-8.284 6.716-15 15-15h482c8.284 0 15 6.716 15 15z" fill="#00429d"/><path d="m256.001 58.915v112.766h255.999v-97.766c0-8.284-6.716-15-15-15z" fill="#00347b"/><path d="m151 44.01v14.905h30v-14.905c0-13.251-5.192-24.994-14.621-33.065-8.157-6.983-18.946-10.829-30.381-10.829-11.434 0-22.223 3.846-30.38 10.829-9.428 8.071-14.62 19.814-14.62 33.065v52.994c0 8.284 6.716 15 15 15s15-6.716 15-15v-52.994c0-13.225 12.495-13.895 15-13.895 2.506 0 15.002.67 15.002 13.895z" fill="#fdbf00"/><path d="m256.998 30.002c7.721 0 14.003 6.281 14.003 14.003v14.91h30v-14.91c0-24.264-19.74-44.003-44.003-44.003h-1.996c-24.263 0-44.002 19.739-44.002 44.003v53.004c0 8.284 6.716 15 15 15s15-6.716 15-15v-53.004c0-7.722 6.281-14.003 14.002-14.003z" fill="#fdbf00"/><g fill="#ff8856"><path d="m376.998 30.002c7.721 0 14.002 6.281 14.002 14.003v14.91h30v-14.91c0-24.264-19.739-44.003-44.002-44.003h-1.996c-24.262 0-44.002 19.739-44.002 44.003v52.999c0 8.284 6.716 15 15 15s15-6.716 15-15v-52.999c0-7.722 6.282-14.003 14.003-14.003z"/><path d="m256.998.002h-.997v30h.997c7.721 0 14.003 6.281 14.003 14.003v14.91h30v-14.91c0-24.264-19.74-44.003-44.003-44.003z"/><path d="m219.5 437h-29v-205c0-8.284-6.716-15-15-15s-15 6.716-15 15v18h-26c-8.284 0-15 6.716-15 15s6.716 15 15 15h26v157h-29c-8.284 0-15 6.716-15 15s6.716 15 15 15h88c8.284 0 15-6.716 15-15s-6.716-15-15-15z"/></g><path d="m380.5 437h-29v-205c0-8.284-6.716-15-15-15s-15 6.716-15 15v18h-26c-8.284 0-15 6.716-15 15s6.716 15 15 15h26v157h-29c-8.284 0-15 6.716-15 15s6.716 15 15 15h88c8.284 0 15-6.716 15-15s-6.716-15-15-15z" fill="#ff435b"/></g></svg>