<svg id="_x33_0" enable-background="new 0 0 64 64" height="512" viewBox="0 0 64 64" width="512" xmlns="http://www.w3.org/2000/svg"><g><g><g><path d="m51 2h-38c-.55 0-1 .45-1 1v39c5.52 0 10 4.48 10 10 0 2.25-.75 4.33-2 6h26v-6l-2.43-4c-1.03-2.32-1.57-4.83-1.57-7.4v-7.6c0-.55.45-1 1-1 1.66 0 3 1.34 3 3v-9c0-.55.22-1.05.59-1.41.36-.37.86-.59 1.41-.59 1.1 0 2 .9 2 2v-2c0-.55.22-1.05.59-1.41.36-.37.86-.59 1.41-.59v-19c0-.55-.45-1-1-1z" fill="#e6e9ed"/></g><g><path d="m16 6h22v30h-22z" fill="#ffeaa7"/></g><g><path d="m34 16.08c0 1.25-.38 2.47-1.1 3.49l-1 1.43c.07-.32.1-.66.1-1v-1.31c0-.97-.71-1.81-1.67-1.97l-1.95-.32c-.83-.14-1.57-.53-2.14-1.1l-.01.01-2.34.94c-1.14.45-1.89 1.55-1.89 2.78v.97c0 .34.03.68.1 1l-1-1.43c-.72-1.02-1.1-2.24-1.1-3.49 0-3.36 2.72-6.08 6.08-6.08h1.84c1.68 0 3.2.68 4.3 1.78s1.78 2.62 1.78 4.3z" fill="#b27946"/></g><g><path d="m37.57 32.55.43 3.45h-22l.43-3.45c.33-2.59 2.28-4.66 4.81-5.15l2.76 4.6 3-3 3 3 2.76-4.6c2.53.49 4.48 2.56 4.81 5.15z" fill="#69d6f4"/></g><g><path d="m24 27 3 2-3 3-2.76-4.6c.1-.02.2-.04.3-.05z" fill="#4fc1e9"/></g><g><path d="m32.76 27.4-2.76 4.6-3-3 3-2 2.46.35c.1.01.2.03.3.05z" fill="#4fc1e9"/></g><g><path d="m27 25c.78 0 1.52-.18 2.17-.49l.83 2.49-3 2-3-2 .83-2.49z" fill="#f0d0b4"/></g><g><path d="m31.9 21c-.31 1.55-1.34 2.83-2.73 3.51-.65.31-1.39.49-2.17.49l-2.17-.49-1.37-.97c-.68-.68-1.16-1.56-1.36-2.54-.07-.32-.1-.66-.1-1v-.97c0-1.23.75-2.33 1.89-2.78l2.34-.94.01-.01c.57.57 1.31.96 2.14 1.1l1.95.32c.96.16 1.67 1 1.67 1.97v1.31c0 .34-.03.68-.1 1z" fill="#f0d0b4"/></g><g><path d="m43.57 48h-16.57v4h19c-.99-1.23-1.8-2.58-2.43-4z" fill="#fcd770"/></g><g><path d="m58 52v10h-12v-4-6z" fill="#b4dd7f"/></g><g><path d="m58 30c0-.55.22-1.05.59-1.41.36-.37.86-.59 1.41-.59 1.1 0 2 .9 2 2v10.6c0 2.07-.35 4.11-1.03 6.04-.67 1.92-1.67 3.74-2.97 5.36h-12c-.99-1.23-1.8-2.58-2.43-4-1.03-2.32-1.57-4.83-1.57-7.4v-7.6c0-.55.45-1 1-1 1.66 0 3 1.34 3 3v-9c0-.55.22-1.05.59-1.41.36-.37.86-.59 1.41-.59 1.1 0 2 .9 2 2v-2c0-.55.22-1.05.59-1.41.36-.37.86-.59 1.41-.59 1.1 0 2 .9 2 2v2c0-.55.22-1.05.59-1.41.36-.37.86-.59 1.41-.59 1.1 0 2 .9 2 2z" fill="#f0d0b4"/></g><g><path d="m22 52c0 2.25-.75 4.33-2 6-1.83 2.43-4.73 4-8 4-5.52 0-10-4.48-10-10s4.48-10 10-10 10 4.48 10 10z" fill="#ff826e"/></g></g><g><path d="m60 27c-.352 0-.686.072-1 .184v-1.184c0-1.654-1.346-3-3-3-.395 0-.77.081-1.116.22-.258-.95-.965-1.708-1.884-2.036v-18.184c0-1.103-.897-2-2-2h-38c-1.103 0-2 .897-2 2v38.051c-5.598.507-10 5.221-10 10.949 0 6.065 4.935 11 11 11 3.408 0 6.459-1.559 8.479-4h24.521v4h14v-10.654c2.582-3.354 4-7.512 4-11.749v-10.597c0-1.654-1.346-3-3-3zm-48 34c-4.962 0-9-4.037-9-9s4.038-9 9-9 9 4.037 9 9-4.038 9-9 9zm9.786-4c.77-1.502 1.214-3.199 1.214-5 0-5.728-4.402-10.442-10-10.949v-38.051h38v18.184c-.919.328-1.627 1.086-1.884 2.036-.346-.139-.721-.22-1.116-.22-1.654 0-3 1.346-3 3l.001 5.556c-.591-.344-1.269-.556-2.001-.556-1.103 0-2 .897-2 2v7.597c0 2.19.386 4.356 1.108 6.403h-17.108v6h20v4zm5.214-6v-2h2v2zm4-2h2v2h-2zm4 0h2v2h-2zm4 0h2v2h-2zm4 .1c.32.65.664 1.288 1.056 1.9h-1.056zm4 11.9v-8h10v8zm14-20.403c0 3.748-1.249 7.419-3.506 10.403h-10.988c-2.257-2.984-3.506-6.655-3.506-10.403v-7.597c1.103 0 2 .896 2 1.996v4.004h2v-4h.001l-.001-9c0-.552.449-1 1-1s1 .448 1 1v13h2v-15c0-.552.449-1 1-1s1 .448 1 1v15h2v-13c0-.552.449-1 1-1s1 .448 1 1v13h2v-9c0-.552.449-1 1-1s1 .448 1 1z"/><path d="m8.957 55.543-2.25-2.25-1.414 1.414 3.75 3.75 8.705-9.793-1.496-1.328z"/><path d="m39 5h-24v32h24zm-2 2v21.86c-1.085-1.316-2.624-2.246-4.396-2.499l-1.852-.264-.38-1.14c1.205-.822 2.09-2.073 2.448-3.53l.899-1.283c.837-1.196 1.28-2.602 1.28-4.063.001-3.904-3.176-7.081-7.082-7.081h-1.835c-3.905 0-7.082 3.177-7.082 7.082 0 1.461.443 2.866 1.281 4.063l.899 1.283c.358 1.456 1.243 2.707 2.448 3.53l-.38 1.14-1.852.264c-1.771.253-3.31 1.182-4.395 2.499v-21.861zm-15.748 10.655c-.164-.504-.252-1.033-.252-1.573 0-2.802 2.28-5.082 5.083-5.082h1.835c2.802 0 5.082 2.28 5.082 5.082 0 .509-.078 1.008-.224 1.486-.381-.943-1.224-1.656-2.283-1.832l-1.954-.326c-1.099-.183-2-.953-2.353-2.011l-.238-.715-1.897.633.238.715c.097.291.219.568.363.831l-1.138.455c-1.08.431-1.881 1.291-2.262 2.337zm1.748 1.376c0-.822.493-1.552 1.257-1.856l1.786-.715c.626.467 1.366.788 2.168.922l1.954.326c.484.08.835.495.835.986v1.304c0 2.206-1.794 4.001-4 4.002-2.206-.001-4-1.796-4-4.002zm7.237 9.013.894.128-1.33 2.216-1.232-1.232zm-3.239-2.044h.004c.533 0 1.048-.077 1.541-.209l.267.801-1.81 1.206-1.81-1.206.267-.801c.493.132 1.008.209 1.541.209zm-3.235 2.044 1.667 1.112-1.232 1.232-1.33-2.216zm-2.989.522 3.028 5.046 3.198-3.198 3.199 3.198 3.028-5.046c1.781.61 3.11 2.188 3.35 4.105l.29 2.329h-19.734l.291-2.328c.239-1.918 1.569-3.496 3.35-4.106z"/><path d="m41 7h2v2h-2z"/><path d="m45 7h2v2h-2z"/><path d="m41 11h8v2h-8z"/><path d="m41 15h8v2h-8z"/><path d="m41 19h6v2h-6z"/><path d="m21 39h16v2h-16z"/><path d="m23 43h14v2h-14z"/></g></g></svg>